<?xml version="1.0" standalone="no"?><!-- Generator: Gravit.io --><svg xmlns="http://www.w3.org/2000/svg" xmlns:xlink="http://www.w3.org/1999/xlink" style="isolation:isolate" viewBox="662 379 561.3 263.295" width="561.3" height="263.295"><g id="large_car"><g id="null"><path d=" M 664.316 548.947 L 670.976 548.797 C 671.763 548.775 672.408 548.159 672.358 547.386 C 671.849 538.227 669.257 486.34 675.559 466.183 C 676.103 464.435 677.607 463.154 679.375 462.631 L 682.855 461.643 C 683.708 461.392 684.438 460.769 684.753 459.924 C 689.973 445.796 699.848 414.668 704.853 404.843 C 705.262 404.049 693.16 398.642 691.957 382.072 C 691.835 380.404 693.239 379.057 694.907 379.05 C 719.669 378.878 889.745 378.298 980.801 394.353 C 980.837 394.36 980.887 394.396 980.937 394.382 C 980.952 394.367 980.959 394.396 980.98 394.417 C 982.742 396.122 1038.037 449.777 1056.92 469.19 C 1057.586 469.878 1058.539 470.236 1059.484 470.078 C 1063.852 469.376 1068.285 468.403 1071.442 467.042 C 1073.204 466.29 1075.087 465.681 1076.999 465.889 C 1117.228 470.064 1192.395 470.787 1202.413 498.743 C 1202.742 499.667 1203.258 500.562 1204.039 501.163 C 1206.029 502.653 1209.058 505.567 1212.245 529.241 C 1212.245 532.413 1222.27 531.883 1223.122 539.488 C 1223.688 545.388 1222.764 558.535 1222.306 564.371 C 1222.155 566.212 1221.174 567.887 1219.656 568.94 L 1190.583 589.241 C 1189.001 590.336 1187.161 591.024 1185.256 591.239 L 1184.883 591.274 C 1184.726 556.466 1156.369 528.195 1121.525 528.195 C 1086.58 528.195 1058.145 556.623 1058.145 591.568 C 1058.145 596.008 1058.61 600.354 1059.491 604.536 C 1059.011 604.465 1058.524 604.443 1058.059 604.314 C 1046.609 601.027 1034.421 589.312 1030.898 585.732 C 1030.261 585.087 1029.401 584.686 1028.492 584.686 C 1015.087 584.686 909.516 584.686 887.611 584.686 C 886.658 584.686 885.713 584.908 884.854 585.309 L 860.113 596.867 C 858.402 597.662 856.454 597.884 854.592 597.476 L 842.849 594.934 C 841.896 594.726 840.915 594.618 839.956 594.633 L 837.335 594.669 C 837.392 593.63 837.493 592.621 837.493 591.575 C 837.493 556.631 809.064 528.202 774.112 528.202 C 739.168 528.202 710.74 556.631 710.74 591.575 C 710.74 593.072 710.868 594.547 710.969 596.015 C 710.424 596.022 709.895 595.979 709.4 595.771 C 707.31 594.869 703.65 591.718 700.965 585.546 C 700.6 584.715 699.984 584.021 699.196 583.605 C 682.526 574.876 687.596 585.847 680.485 581.529 C 668.341 574.339 666.228 575.284 664.331 570.329 C 662.304 565.345 660.306 549.484 664.316 548.947 Z  M 1214.966 559.373 C 1218.238 559.373 1218.238 541.478 1214.966 541.478 C 1211.715 541.478 1207.597 545.488 1207.597 550.429 C 1207.597 555.37 1211.715 559.373 1214.966 559.373 Z  M 1174.393 509.914 L 1177.973 518.27 C 1179.778 522.495 1183.559 525.581 1188.049 526.527 L 1200.079 529.083 C 1203.566 529.821 1206.795 526.892 1206.137 523.383 C 1205.32 519.058 1204.017 513.501 1202.098 508.768 C 1200.372 504.522 1195.789 502.359 1191.192 502.509 L 1178.825 502.939 C 1175.295 503.046 1172.997 506.67 1174.393 509.914 Z  M 870.532 495.535 C 871.786 495.986 874.141 496.05 878.932 496.05 L 882.362 496.043 C 883.93 496.036 885.685 496.036 887.661 496.036 C 902.247 496.036 906.1 495.972 906.938 494.468 C 907.339 493.759 906.952 492.943 906.487 492.176 C 904.811 489.541 897.679 486.748 887.776 486.748 C 883.357 486.748 868.978 487.157 868.978 492.441 C 868.978 493.816 868.978 494.991 870.532 495.535 Z  M 865.391 457.547 C 865.556 466.519 872.845 473.73 881.818 473.823 L 1014.98 474.998 C 1020.973 475.055 1024.06 467.851 1019.899 463.54 L 978.875 421.113 C 971.664 413.658 961.918 409.061 951.578 408.252 L 880.393 402.645 C 871.778 401.958 864.46 408.853 864.625 417.504 L 865.391 457.547 Z  M 738.13 453.959 L 806.307 467.887 C 815.258 469.72 824.145 464.428 826.809 455.685 L 838.61 416.809 C 840.93 409.176 835.165 401.492 827.174 401.614 L 755.165 402.688 C 745.505 402.838 736.905 409.04 733.711 418.163 L 727.646 435.499 C 724.832 443.562 729.759 452.248 738.13 453.959 Z  M 688.341 524.744 L 704.997 525.023 C 706.622 525.044 707.933 523.755 707.933 522.137 L 707.933 499.215 C 707.933 497.311 707.295 495.47 706.121 493.967 L 697.127 482.431 C 696.096 481.12 694.485 480.39 692.816 480.483 C 691.198 480.576 689.809 481.636 689.293 483.161 L 686.93 490.128 C 686.314 491.962 685.978 493.881 685.935 495.835 L 685.455 521.772 C 685.441 523.376 686.722 524.715 688.341 524.744 Z " fill="rgb(0,0,0)"/><path d=" M 901.41 595.757 L 1006.15 595.757 C 1013.769 595.757 1021.238 598.134 1027.468 602.524 L 1045.069 614.941 L 862.505 614.941 L 880.099 602.524 C 886.322 598.134 893.791 595.757 901.41 595.757 Z " fill="rgb(0,0,0)"/><path d=" M 1121.511 540.834 C 1149.531 540.834 1172.23 563.541 1172.23 591.561 C 1172.23 591.94 1172.187 592.298 1172.173 592.671 C 1171.579 620.182 1149.144 642.295 1121.503 642.295 C 1097.672 642.295 1077.744 625.839 1072.295 603.698 C 1071.335 599.789 1070.769 595.75 1070.769 591.561 C 1070.776 563.541 1093.49 540.834 1121.511 540.834 Z  M 1094.199 601.278 C 1098.202 612.506 1108.9 620.562 1121.511 620.562 C 1136.319 620.562 1148.528 609.434 1150.275 595.084 C 1150.419 593.924 1150.512 592.75 1150.512 591.554 C 1150.512 575.535 1137.522 562.552 1121.511 562.552 C 1105.485 562.552 1092.502 575.535 1092.502 591.554 C 1092.495 594.969 1093.111 598.228 1094.199 601.278 Z " fill="rgb(0,0,0)"/><path d=" M 774.098 540.834 C 802.118 540.834 824.825 563.541 824.825 591.561 C 824.825 592.642 824.732 593.709 824.668 594.783 C 822.999 621.292 801.037 642.295 774.098 642.295 C 747.532 642.295 725.77 621.858 723.593 595.843 C 723.471 594.432 723.378 593.007 723.378 591.561 C 723.371 563.541 746.085 540.834 774.098 540.834 Z  M 745.405 595.607 C 747.374 609.713 759.461 620.562 774.098 620.562 C 788.942 620.562 801.166 609.398 802.877 595.005 C 803.021 593.874 803.099 592.728 803.099 591.561 C 803.099 575.542 790.117 562.56 774.098 562.56 C 758.079 562.56 745.09 575.542 745.09 591.561 C 745.09 592.936 745.212 594.282 745.405 595.607 Z " fill="rgb(0,0,0)"/></g></g></svg>