<?xml version="1.0" standalone="no"?><!-- Generator: Gravit.io --><svg xmlns="http://www.w3.org/2000/svg" xmlns:xlink="http://www.w3.org/1999/xlink" style="isolation:isolate" viewBox="725.683 346.211 501.406 236.358" width="501.406" height="236.358"><g id="noun_5375_cc"><path d=" M 1129.823 502.01 C 1151.888 501.967 1169.814 519.823 1169.857 541.883 C 1169.9 563.943 1152.049 581.874 1129.979 581.917 C 1107.919 581.96 1089.993 564.1 1089.95 542.039 C 1089.907 519.979 1107.758 502.054 1129.823 502.01 Z  M 1129.487 567.723 C 1143.213 567.696 1154.317 556.553 1154.29 542.832 C 1154.263 529.101 1143.116 518.007 1129.39 518.034 C 1115.669 518.061 1104.57 529.199 1104.597 542.929 C 1104.623 556.65 1115.766 567.749 1129.487 567.723 Z " fill="rgb(0,0,0)"/><path d=" M 796.703 502.662 C 818.763 502.618 836.689 520.474 836.732 542.534 C 836.775 564.595 818.919 582.525 796.859 582.568 C 774.794 582.611 756.873 564.751 756.83 542.69 C 756.787 520.63 774.638 502.705 796.703 502.662 Z  M 796.372 568.374 C 810.098 568.347 821.192 557.204 821.165 543.483 C 821.138 529.753 810.001 518.658 796.275 518.685 C 782.549 518.712 771.45 529.85 771.477 543.581 C 771.503 557.301 782.646 568.401 796.372 568.374 Z " fill="rgb(0,0,0)"/><path d=" M 725.701 499.983 C 726.207 487.741 733.036 484.603 733.046 484.598 C 733.036 484.481 732.972 482.886 732.613 467.233 C 732.183 448.682 742.188 438.162 742.188 438.162 C 766.674 415.918 795.24 402.671 795.24 402.671 C 796.448 403.33 788.1 396.567 788.903 396.363 C 791.093 395.814 817.905 394.03 837.777 392.815 C 838.126 390.79 834.389 384.926 834.389 384.926 C 834.389 384.926 808.673 348.216 808.146 347.157 C 807.077 344.993 809.383 347.25 808.963 347.019 C 808.963 347.019 832.462 380.27 835.212 384.647 C 837.435 388.191 840.97 391.43 842.249 392.543 C 844.485 392.413 846.61 392.288 848.523 392.178 C 900.952 389.178 961.002 392.862 984.034 394.169 C 1007.071 395.477 1011.351 399.942 1011.351 399.942 C 1034.9 412.763 1074.901 438.431 1081.562 442.411 C 1085.985 445.052 1100.225 447.241 1100.225 447.241 L 1166.985 456.823 C 1210.699 463.169 1210.748 472.851 1213.799 473.865 C 1216.85 474.873 1223.428 487.965 1224.285 492.204 C 1226.831 493.325 1226.81 497.838 1226.81 497.838 C 1226.81 497.838 1226.819 502.492 1227.051 507.828 C 1227.279 510.927 1226.4 515.588 1226.4 515.588 C 1226.779 536.593 1214.565 537.702 1211.856 538.722 C 1209.147 539.747 1175.947 540.15 1175.947 540.15 C 1175.947 540.15 1177.062 526.932 1172.641 517.45 C 1168.216 507.968 1156.186 482.256 1117.581 489.106 C 1078.976 495.961 1081.787 547.114 1081.787 547.114 L 845.252 547.142 C 841.85 505.865 828.18 488.071 794.282 488.138 C 768.753 488.188 755.835 513.676 754.306 516.622 C 754.306 516.622 751.256 521.63 751.015 537.82 C 750.739 538.517 746.06 538.703 741.433 537.475 C 729.175 534.42 730.109 518.764 729.948 516.573 C 725.601 513.432 725.773 511.074 725.799 509.115 C 725.826 507.152 725.623 501.776 725.701 499.983 Z  M 1187.791 494.613 C 1187.791 494.613 1218.365 495.573 1221.584 492.346 C 1221.584 492.346 1214.629 474.625 1210.165 473.872 C 1205.704 474.814 1194.793 476.431 1191.933 477.759 C 1189.048 479.097 1184.168 479.556 1184.622 484.649 C 1185.081 489.762 1185.127 492.397 1187.791 494.613 Z  M 1079.99 443.812 L 1009.035 400.819 C 1006.775 401.298 1012.077 404.564 1012.077 404.564 C 1012.077 404.564 1068.968 445.287 1071.41 447.06 C 1073.856 448.832 1079.99 443.812 1079.99 443.812 Z  M 943.061 475.524 L 965.688 476.041 C 968.242 476.101 968.27 474.955 968.298 473.547 C 968.335 472.143 968.141 470.998 965.809 470.932 L 943.177 470.416 C 941.072 470.369 940.6 471.501 940.567 472.909 C 940.506 475.242 941.647 475.487 943.061 475.524 Z  M 944.96 452.945 C 946.964 455.158 1060.148 457.607 1060.148 457.607 C 1061.541 457.725 1069.329 456.862 1062.347 448.95 C 1055.901 441.633 1013.004 411.539 1011.003 410.654 C 1009.007 409.775 1002.56 404.235 981.254 402.504 C 959.942 400.769 935.967 400.155 935.967 400.155 C 935.967 400.155 942.952 450.728 944.96 452.945 Z  M 925.206 452.318 L 923.337 402.829 C 923.328 398.392 917.781 398.625 917.781 398.625 C 917.781 398.625 856.295 398.745 852.751 398.53 C 849.196 398.32 847.431 401.423 847.431 401.423 C 847.431 401.423 825.511 432.093 818.002 448.973 C 818.014 450.084 925.206 452.318 925.206 452.318 Z  M 813.891 471.112 L 836.522 471.634 C 839.067 471.694 839.1 470.553 839.133 469.14 C 839.165 467.726 838.971 466.586 836.639 466.525 L 814.012 466.003 C 811.902 465.952 811.429 467.089 811.402 468.502 C 811.346 470.83 812.482 471.08 813.891 471.112 Z  M 783.714 448.187 C 786.233 448.359 807.663 448.832 809.227 448.203 C 822.662 426.248 841.263 399.517 841.263 399.517 C 841.263 399.517 827.145 400.105 811.183 410.787 C 795.237 421.47 790.88 426.562 781.809 434.718 C 774.937 441.314 779.331 447.883 783.714 448.187 Z  M 735.626 484.81 C 737.584 484.619 746.59 484.788 746.59 484.788 C 746.59 484.788 747.878 454.108 749.331 445.619 C 743.913 444.812 739.509 446.451 739.509 446.451 C 739.509 446.451 732.433 455.365 735.626 484.81 Z " fill="rgb(0,0,0)"/></g></svg>