<?xml version="1.0" standalone="no"?><!-- Generator: Gravit.io --><svg xmlns="http://www.w3.org/2000/svg" xmlns:xlink="http://www.w3.org/1999/xlink" style="isolation:isolate" viewBox="745.363 257 508.457 299.67" width="508.457" height="299.67"><g id="noun_1062422_cc"><path d=" M 872.835 505.234 C 872.835 533.747 849.353 556.67 820.84 556.67 C 792.886 556.67 769.404 533.188 769.404 504.675 C 769.404 476.161 792.886 452.68 821.399 452.68 C 849.912 453.239 873.394 476.72 872.835 505.234 Z  M 857.18 505.234 C 857.18 485.666 840.967 468.893 821.399 468.893 C 802.39 468.893 785.618 485.666 785.618 504.675 C 785.618 524.243 802.39 540.456 821.958 540.456 C 840.967 540.456 856.621 524.243 857.18 505.234 Z " fill="rgb(0,0,0)"/><path d=" M 1174.182 556.67 C 1145.668 556.67 1122.746 533.188 1122.746 505.234 C 1122.746 476.72 1146.227 453.239 1174.741 453.239 C 1203.254 453.239 1226.736 476.72 1226.736 505.234 C 1226.176 533.747 1202.695 556.67 1174.182 556.67 Z  M 1174.182 540.456 C 1193.75 540.456 1209.963 524.243 1209.963 504.675 C 1209.963 485.107 1193.75 468.893 1174.182 468.893 C 1155.173 468.893 1138.4 485.666 1138.4 504.675 C 1138.4 524.243 1154.614 540.456 1174.182 540.456 Z " fill="rgb(0,0,0)"/><path d=" M 1243.508 429.198 C 1240.154 418.016 1235.681 407.953 1227.854 399.008 C 1221.704 391.739 1215.554 385.03 1208.845 378.321 C 1173.623 344.776 1134.487 316.822 1093.114 291.663 C 1062.924 273.213 1031.615 259.795 996.952 258.118 C 996.952 258.118 946.634 257 944.398 257 C 899.112 257 853.826 260.355 809.099 265.945 C 790.649 268.182 791.208 268.741 783.381 285.513 C 782.263 288.309 781.145 290.545 780.027 292.781 C 763.813 326.886 756.545 362.667 760.459 400.126 C 762.136 414.103 761.018 426.962 754.868 439.262 C 746.482 456.593 745.363 475.602 745.363 494.611 C 745.363 500.202 747.6 504.116 753.75 504.675 C 763.813 461.066 786.736 438.703 820.84 439.262 C 836.494 439.821 851.03 444.293 863.33 454.916 C 883.457 471.689 889.607 494.052 886.812 520.329 C 891.285 520.329 894.08 520.329 896.875 520.329 C 937.689 520.329 978.502 520.329 1019.315 520.329 C 1046.71 520.329 1074.105 520.329 1101.501 520.329 C 1107.091 520.329 1108.769 518.093 1108.21 513.061 C 1108.21 511.384 1107.65 509.706 1107.65 508.029 C 1105.973 464.421 1143.991 431.994 1187.041 440.939 C 1215.554 447.089 1237.358 473.366 1237.358 502.997 C 1237.358 508.029 1237.917 511.943 1244.067 511.943 C 1249.658 511.943 1253.013 509.147 1253.572 503.556 C 1254.131 501.879 1253.572 499.643 1253.572 497.966 C 1254.69 475.043 1249.658 452.121 1243.508 429.198 Z  M 814.69 402.921 C 805.745 402.921 797.917 395.653 797.917 386.708 C 797.917 377.762 805.185 369.935 814.131 369.935 C 822.517 369.935 830.903 377.762 830.903 386.149 C 831.462 395.094 823.635 402.921 814.69 402.921 Z  M 1117.155 388.944 C 1116.037 394.535 1113.241 395.653 1107.65 394.535 C 1103.737 393.417 1099.264 392.858 1094.792 392.299 C 1050.624 385.59 1006.456 378.321 962.288 371.612 C 957.816 371.053 955.579 369.376 955.579 364.903 C 955.02 358.753 953.902 352.604 952.784 346.454 C 949.989 330.799 947.193 309.554 944.957 293.9 L 936.57 293.9 L 936.57 367.14 C 911.412 363.226 886.812 359.313 862.771 355.399 C 861.094 355.399 858.858 352.604 858.858 351.485 C 858.299 333.036 862.771 315.704 874.512 301.727 C 880.103 295.018 886.253 288.868 895.757 288.309 C 915.884 287.75 935.452 287.191 955.579 286.632 C 957.816 286.632 1019.874 288.309 1038.324 296.695 C 1060.687 307.318 1081.933 320.736 1103.737 333.036 C 1105.414 334.154 1107.091 335.831 1108.769 337.508 C 1118.832 353.163 1121.628 370.494 1117.155 388.944 Z  M 1175.859 399.008 C 1165.236 387.826 1165.236 374.408 1170.827 358.753 C 1191.513 375.526 1210.522 392.858 1226.736 415.78 C 1205.49 419.694 1189.277 413.544 1175.859 399.008 Z " fill="rgb(0,0,0)"/></g></svg>
