<svg xmlns="http://www.w3.org/2000/svg" xmlns:xlink="http://www.w3.org/1999/xlink" version="1.1" x="0px" y="0px" viewBox="0 0 100 125" enable-background="new 0 0 100 100" xml:space="preserve"><g><g><path d="M18.525,95h-1.864C10.231,95,5,89.744,5,83.284V57.678c0-6.46,5.231-11.716,11.661-11.716h1.864    c0.951,0,1.721,0.771,1.721,1.721v45.596C20.246,94.229,19.475,95,18.525,95z M16.661,49.404c-4.532,0-8.218,3.712-8.218,8.274    v25.605c0,4.562,3.687,8.274,8.218,8.274h0.142V49.404H16.661z"/></g><g><path d="M12.623,62.305c0.611,0,1.107,0.495,1.107,1.107v14.139c0,0.611-0.495,1.107-1.107,1.107l0,0    c-0.611,0-1.107-0.495-1.107-1.107V63.411C11.516,62.8,12.012,62.305,12.623,62.305L12.623,62.305z"/></g><g><path d="M93.279,20.246H47.683c-0.951,0-1.721-0.771-1.721-1.721v-1.864C45.962,10.231,51.218,5,57.678,5h25.605    C89.744,5,95,10.231,95,16.661v1.864C95,19.475,94.229,20.246,93.279,20.246z M49.404,16.803h42.153v-0.142    c0-4.532-3.712-8.218-8.274-8.218H57.678c-4.562,0-8.274,3.687-8.274,8.218V16.803z"/></g><g><path d="M83.284,95H57.678c-6.46,0-11.716-5.231-11.716-11.661v-7.377c0-0.951,0.771-1.721,1.721-1.721h45.596    c0.951,0,1.721,0.771,1.721,1.721v7.377C95,89.769,89.744,95,83.284,95z M49.404,77.683v5.656c0,4.532,3.712,8.218,8.274,8.218    h25.605c4.562,0,8.274-3.687,8.274-8.218v-5.656H49.404z"/></g><g><circle cx="70.481" cy="84.232" r="3.289"/></g><g><path d="M78.657,12.623c0,0.611-0.495,1.107-1.107,1.107H63.411c-0.611,0-1.107-0.495-1.107-1.107l0,0    c0-0.611,0.495-1.107,1.107-1.107h14.139C78.162,11.516,78.657,12.012,78.657,12.623L78.657,12.623z"/></g><g><path d="M93.279,77.683H47.683c-0.951,0-1.721-0.771-1.721-1.721V18.525c0-0.951,0.771-1.721,1.721-1.721h45.596    c0.951,0,1.721,0.771,1.721,1.721v57.437C95,76.913,94.229,77.683,93.279,77.683z M49.404,74.241h42.153V20.246H49.404V74.241z"/></g><g><path d="M47.683,83.339v-7.377V47.683H18.525v45.596h39.154C52.158,93.279,47.683,88.829,47.683,83.339z"/></g><g><path d="M57.678,95H18.525c-0.951,0-1.721-0.771-1.721-1.721V47.683c0-0.951,0.771-1.721,1.721-1.721h29.159    c0.951,0,1.721,0.771,1.721,1.721v35.656c0,4.532,3.712,8.218,8.274,8.218c0.951,0,1.721,0.771,1.721,1.721S58.629,95,57.678,95z     M20.246,91.557h29.128c-2.108-2.11-3.412-5.015-3.412-8.218V49.404H20.246V91.557z"/></g></g></svg>
