<svg xmlns="http://www.w3.org/2000/svg" xmlns:xlink="http://www.w3.org/1999/xlink" xml:space="preserve" version="1.1" style="shape-rendering:geometricPrecision;text-rendering:geometricPrecision;image-rendering:optimizeQuality;" viewBox="0 0 333 416.25" x="0px" y="0px" fill-rule="evenodd" clip-rule="evenodd"><defs><style type="text/css">

    .str1 {stroke:black;stroke-width:6.66535;stroke-linecap:round;stroke-linejoin:round}
    .str0 {stroke:black;stroke-width:9.99606;stroke-linecap:round;stroke-linejoin:round}
    .fil1 {fill:none}
    .fil0 {fill:black}

  </style></defs><g><polygon class="fil0 str0" points="83,104 83,119 123,119 123,104 "/><path class="fil0 str0" d="M172 10l-99 0c-11,0 -20,9 -20,21l0 29 119 0 0 -10 39 0 0 -25 -39 0 0 -15z"/><polygon class="fil0 str0" points="83,60 83,76 123,76 123,60 "/><path class="fil1 str0" d="M129 76l-53 0c-4,0 -7,3 -7,7l0 14c0,4 3,7 7,7l53 0c4,0 7,-3 7,-7l0 -14c0,-4 -3,-7 -7,-7z"/><path class="fil1 str0" d="M144 119l-82 0c-9,0 -9,20 -16,34 -8,18 -21,32 -21,44l0 94c0,20 17,37 37,37l82 0c20,0 37,-17 37,-37l0 -94c0,-10 -16,-28 -23,-45 -6,-17 -3,-33 -14,-33z"/><path class="fil0" d="M151 60c-2,4 -4,8 -4,13 0,15 12,26 27,26l0 0c-8,-4 -14,-13 -14,-23 0,-6 3,-12 6,-16l-15 0z"/><path class="fil0" d="M181 204l-155 0 0 86c0,21 17,38 38,38l85 0c17,0 32,-15 32,-32l0 -92zm-16 100l0 0c-3,0 -5,-2 -5,-5l0 -82c0,-3 2,-5 5,-5l0 0c3,0 5,2 5,5l0 82c0,3 -2,5 -5,5z"/><rect class="fil0" x="93" y="119" width="10.0157" height="95.2165"/><rect class="fil0" x="121" y="78" width="4.3937" height="24.252"/><rect class="fil0" x="110" y="78" width="4.3937" height="24.252"/><rect class="fil0" x="99" y="78" width="4.3937" height="24.252"/><rect class="fil0" x="89" y="78" width="4.3937" height="24.252"/><rect class="fil0" x="79" y="78" width="4.3937" height="24.252"/><line class="fil1 str1" x1="231" y1="37" x2="304" y2="37"/><line class="fil1 str1" x1="231" y1="47" x2="302" y2="66"/><line class="fil1 str1" x1="232" y1="26" x2="308" y2="5"/></g><text x="0" y="348" fill="#000000" font-size="5px" font-weight="bold" font-family="'Helvetica Neue', Helvetica, Arial-Unicode, Arial, Sans-serif">Created by Vallone Design</text><text x="0" y="353" fill="#000000" font-size="5px" font-weight="bold" font-family="'Helvetica Neue', Helvetica, Arial-Unicode, Arial, Sans-serif">from the Noun Project</text></svg>
